<svg xmlns="http://www.w3.org/2000/svg" data-name="Layer 8" viewBox="2 12 64 80" x="0px" y="0px"><path fill="#2f4f4f" d="M56.925,12.1A4.815,4.815,0,0,0,56,12c-.23.023-48.211-.016-48.41,0a5.018,5.018,0,0,0-4.84,5V47a5.006,5.006,0,0,0,5,5H56a5.006,5.006,0,0,0,5-5V17A4.964,4.964,0,0,0,56.925,12.1ZM56,14a1,1,0,0,1,.815,1.755L39.347,30.936,33.8,26.3a3.122,3.122,0,0,0-1.921-.69,3.021,3.021,0,0,0-1.927.693L24.4,30.936l-7.948-6.909L6.935,15.753A1,1,0,0,1,7.75,14ZM57,48.788a.994.994,0,0,1-1,.972H7.76a1,1,0,0,1-.649-1.773c4.509-3.768,19.9-16.622,24.116-20.146a1.029,1.029,0,0,1,1.292,0l6.2,5.181S56.633,47.986,56.637,47.986A.934.934,0,0,1,57,48.788ZM4.75,17a3.012,3.012,0,0,1,.106-.751,3.012,3.012,0,0,0,.769,1.016L22.848,32.234,5.827,46.454a3.126,3.126,0,0,0-.947,1.422A2.98,2.98,0,0,1,4.75,47ZM59,47a2.98,2.98,0,0,1-.13.876,3.141,3.141,0,0,0-.949-1.424L40.9,32.234,58.126,17.265a3.048,3.048,0,0,0,.769-1.016A3.012,3.012,0,0,1,59,17Z"/></svg>